<?xml version="1.0" encoding="UTF-8"?>
<svg xmlns="http://www.w3.org/2000/svg" viewBox="0 0 96 112" role="img" aria-label="All elements seal">
  <defs>
    <radialGradient id="plate" cx="38%" cy="26%" r="78%">
      <stop offset="0%" stop-color="#2a2218"/>
      <stop offset="55%" stop-color="#120e0a"/>
      <stop offset="100%" stop-color="#050406"/>
    </radialGradient>
    <radialGradient id="sheen" cx="32%" cy="22%" r="55%">
      <stop offset="0%" stop-color="#fff" stop-opacity="0.12"/>
      <stop offset="100%" stop-color="#fff" stop-opacity="0"/>
    </radialGradient>
  </defs>
  <path d="M48 6 L86 28 L86 84 L48 106 L10 84 L10 28 Z" fill="url(#plate)"/>
  <path d="M48 6 L86 28 L86 84 L48 106 L10 84 L10 28 Z" fill="url(#sheen)"/>
  <path d="M48 6 L86 28 L86 84 L48 106 L10 84 L10 28 Z" fill="none" stroke="#c9a227" stroke-width="1.4" opacity="0.9"/>
  <path d="M48 14 L78 32 L78 80 L48 98 L18 80 L18 32 Z" fill="none" stroke="#c9a227" stroke-width="0.8" opacity="0.38"/>
  <g stroke="#c9a227" stroke-width="0.9" opacity="0.55" stroke-linecap="round">
    <line x1="48" y1="6" x2="48" y2="14"/><line x1="86" y1="28" x2="78" y2="32"/>
    <line x1="86" y1="84" x2="78" y2="80"/><line x1="48" y1="106" x2="48" y2="98"/>
    <line x1="10" y1="84" x2="18" y2="80"/><line x1="10" y1="28" x2="18" y2="32"/>
  </g>
  <g fill="none" stroke-linecap="round" stroke-linejoin="round" vector-effect="non-scaling-stroke">
    <g stroke="#c9a227" stroke-width="1.2">
    <rect x="26" y="38" width="44" height="44" rx="2" fill="#1a1208" fill-opacity="0.28"/>
    <line x1="48" y1="38" x2="48" y2="82"/><line x1="26" y1="60" x2="70" y2="60"/>
  </g>
  <g stroke-width="1.4" class="seal-quadrant">
    <path d="M26 38h22v22H26z" fill="#e05a3a" fill-opacity="0.22" stroke="#c9a227" opacity="0.9"/>
    <path d="M48 38h22v22H48z" fill="#a78bba" fill-opacity="0.18" stroke="#c9a227" opacity="0.85"/>
    <path d="M26 60h22v22H26z" fill="#5e8a4a" fill-opacity="0.2" stroke="#c9a227" opacity="0.85"/>
    <path d="M48 60h22v22H48z" fill="#3f7d76" fill-opacity="0.2" stroke="#c9a227" opacity="0.85"/>
  </g>
  <g stroke="#efe3c0" stroke-width="1.6" fill="none" opacity="0.7">
    <line x1="48" y1="52" x2="48" y2="68"/><line x1="40" y1="60" x2="56" y2="60"/>
  </g>
  </g>
</svg>