<svg xmlns="http://www.w3.org/2000/svg" viewBox="0 0 64 64">
  <defs>
    <linearGradient id="fg" x1="0" y1="0" x2="1" y2="1">
      <stop offset="0" stop-color="#E8C872"/>
      <stop offset="1" stop-color="#C9A227"/>
    </linearGradient>
    <linearGradient id="fa" x1="0" y1="0" x2="1" y2="1">
      <stop offset="0" stop-color="#E8C872"/>
      <stop offset="1" stop-color="#8C6A2F"/>
    </linearGradient>
  </defs>
  <rect width="64" height="64" rx="14" fill="#050406"/>
  <circle cx="32" cy="32" r="26" fill="none" stroke="url(#fg)" stroke-width="1.6" opacity="0.8"/>
  <ellipse cx="32" cy="32" rx="23" ry="8" fill="none" stroke="url(#fa)" stroke-width="1.2" opacity="0.85" transform="rotate(-28 32 32)"/>
  <circle cx="52.3" cy="24.5" r="2.6" fill="#C9A227"/>
  <path d="M32 14 L34.4 29.6 L50 32 L34.4 34.4 L32 50 L29.6 34.4 L14 32 L29.6 29.6 Z" fill="url(#fg)"/>
  <path d="M32 23 L35.6 28.4 L41 32 L35.6 35.6 L32 41 L28.4 35.6 L23 32 L28.4 28.4 Z"
        fill="url(#fg)" opacity="0.5" transform="rotate(45 32 32)"/>
  <circle cx="32" cy="32" r="2" fill="#f0e8d8"/>
</svg>