<svg xmlns="http://www.w3.org/2000/svg" viewBox="0 0 1600 900" width="1600" height="900" role="img" aria-label="The Complete Set — your deep reading and your natal sky poster, together">
  <defs>
    <radialGradient id="bn-void" cx="50%" cy="40%" r="84%">
      <stop offset="0%" stop-color="#0d0a09"/><stop offset="50%" stop-color="#070509"/><stop offset="100%" stop-color="#040305"/>
    </radialGradient>
    <radialGradient id="bn-join" cx="50%" cy="50%" r="50%">
      <stop offset="0%" stop-color="#fff6dd"/><stop offset="26%" stop-color="#e6c24a"/><stop offset="62%" stop-color="rgba(201,162,39,0.22)"/><stop offset="100%" stop-color="rgba(201,162,39,0)"/>
    </radialGradient>
    <linearGradient id="bn-gold" x1="0" y1="0" x2="0" y2="1">
      <stop offset="0%" stop-color="#f3dd97"/><stop offset="52%" stop-color="#e6c24a"/><stop offset="100%" stop-color="#b8901f"/>
    </linearGradient>
    <linearGradient id="bn-page" x1="0" y1="0" x2="1" y2="0">
      <stop offset="0%" stop-color="#b8901f"/><stop offset="50%" stop-color="#f3dd97"/><stop offset="100%" stop-color="#c9a227"/>
    </linearGradient>
    <linearGradient id="bn-silver" x1="0" y1="0" x2="0" y2="1">
      <stop offset="0%" stop-color="#d8d2cc"/><stop offset="55%" stop-color="#b9c4cf"/><stop offset="100%" stop-color="#a6aeb8"/>
    </linearGradient>
    <linearGradient id="bn-scrim" x1="0" y1="0" x2="0" y2="1">
      <stop offset="0%" stop-color="rgba(4,3,5,0)"/><stop offset="68%" stop-color="rgba(4,3,5,0.54)"/><stop offset="100%" stop-color="rgba(4,3,5,0.92)"/>
    </linearGradient>
    <filter id="bn-soft" x="-40%" y="-40%" width="180%" height="180%"><feGaussianBlur stdDeviation="2.4"/></filter>
  </defs>

  <rect width="1600" height="900" fill="url(#bn-void)"/>

  <!-- starfield -->
  <g fill="#f0e9da">
    <circle cx="120" cy="90" r="1.5" opacity="0.6"/><circle cx="340" cy="60" r="1.1" opacity="0.5"/><circle cx="560" cy="110" r="1.3" opacity="0.55"/><circle cx="800" cy="58" r="1.6" opacity="0.7"/><circle cx="1040" cy="100" r="1.2" opacity="0.5"/><circle cx="1280" cy="64" r="1.5" opacity="0.65"/><circle cx="1470" cy="140" r="1.3" opacity="0.6"/><circle cx="1530" cy="320" r="1.5" opacity="0.65"/><circle cx="90" cy="300" r="1.4" opacity="0.6"/><circle cx="70" cy="480" r="1.5" opacity="0.6"/><circle cx="1505" cy="500" r="1.2" opacity="0.5"/><circle cx="1420" cy="240" r="1.1" opacity="0.45"/><circle cx="230" cy="200" r="1.2" opacity="0.5"/><circle cx="1180" cy="210" r="1.1" opacity="0.5"/>
  </g>
  <g fill="#a6aeb8">
    <circle cx="450" cy="210" r="1.1" opacity="0.5"/><circle cx="980" cy="170" r="1" opacity="0.45"/><circle cx="1340" cy="400" r="1.1" opacity="0.5"/><circle cx="200" cy="420" r="1.2" opacity="0.5"/><circle cx="700" cy="280" r="1" opacity="0.4"/>
  </g>

  <!-- connecting glow -->
  <circle cx="800" cy="380" r="300" fill="url(#bn-join)" opacity="0.9"/>

  <!-- RIGHT: framed natal poster (behind) -->
  <g transform="translate(960 360)">
    <rect x="-188" y="-238" width="376" height="496" rx="6" fill="#070509" stroke="url(#bn-gold)" stroke-width="3"/>
    <rect x="-176" y="-226" width="352" height="472" rx="4" fill="none" stroke="rgba(201,162,39,0.30)" stroke-width="1.2"/>
    <g transform="translate(0 -36)">
      <circle r="150" fill="none" stroke="url(#bn-silver)" stroke-width="1.8" opacity="0.85"/>
      <circle r="140" fill="none" stroke="rgba(166,174,184,0.32)" stroke-width="1"/>
      <circle r="100" fill="none" stroke="rgba(201,162,39,0.30)" stroke-width="1.2"/>
      <circle r="68" fill="none" stroke="rgba(201,162,39,0.16)" stroke-width="1" stroke-dasharray="3 7"/>
      <g stroke="#c9a227" stroke-width="1" opacity="0.5">
        <line x1="0" y1="-150" x2="0" y2="-100"/><line transform="rotate(30)" x1="0" y1="-150" x2="0" y2="-100"/><line transform="rotate(60)" x1="0" y1="-150" x2="0" y2="-100"/><line transform="rotate(90)" x1="0" y1="-150" x2="0" y2="-100"/><line transform="rotate(120)" x1="0" y1="-150" x2="0" y2="-100"/><line transform="rotate(150)" x1="0" y1="-150" x2="0" y2="-100"/><line transform="rotate(180)" x1="0" y1="-150" x2="0" y2="-100"/><line transform="rotate(210)" x1="0" y1="-150" x2="0" y2="-100"/><line transform="rotate(240)" x1="0" y1="-150" x2="0" y2="-100"/><line transform="rotate(270)" x1="0" y1="-150" x2="0" y2="-100"/><line transform="rotate(300)" x1="0" y1="-150" x2="0" y2="-100"/><line transform="rotate(330)" x1="0" y1="-150" x2="0" y2="-100"/>
      </g>
      <g stroke="#c9a227" stroke-width="0.9" fill="none" opacity="0.38">
        <line x1="31.7" y1="-118.3" x2="-51.8" y2="111.0"/><line x1="115.1" y1="-41.9" x2="-86.6" y2="86.6"/><line x1="93.9" y1="78.8" x2="-86.6" y2="-86.6"/>
      </g>
      <g>
        <circle cx="31.7" cy="-118.3" r="6" fill="#e6c24a" stroke="#f3dd97" stroke-width="1"/><circle cx="115.1" cy="-41.9" r="5" fill="#d8d2cc"/><circle cx="93.9" cy="78.8" r="4.5" fill="#caa46a"/><circle cx="-51.8" cy="111.0" r="5" fill="#b8901f" stroke="#c9a227" stroke-width="1"/><circle cx="-86.6" cy="-86.6" r="5" fill="#f3dd97"/>
      </g>
      <circle r="58" fill="url(#bn-join)" opacity="0.8"/>
      <polygon points="0,-30 6,-6 30,0 6,6 0,30 -6,6 -30,0 -6,-6" fill="url(#bn-gold)"/>
      <circle r="3" fill="#fff6dd"/>
    </g>
    <line x1="-120" y1="178" x2="120" y2="178" stroke="rgba(201,162,39,0.45)" stroke-width="1"/>
    <line x1="-78" y1="200" x2="78" y2="200" stroke="rgba(166,174,184,0.32)" stroke-width="1"/>
  </g>

  <!-- LEFT: open reading book (front, overlapping) -->
  <g transform="translate(610 392)">
    <ellipse cx="0" cy="176" rx="278" ry="34" fill="#040305" opacity="0.55" filter="url(#bn-soft)"/>
    <line x1="0" y1="-150" x2="0" y2="158" stroke="#f3dd97" stroke-width="2.5" opacity="0.7"/>
    <path d="M0,-148 C-92,-176 -196,-168 -262,-140 L-262,128 C-196,156 -92,164 0,142 Z" fill="url(#bn-page)" opacity="0.96" stroke="#b8901f" stroke-width="1.5"/>
    <path d="M0,-148 C92,-176 196,-168 262,-140 L262,128 C196,156 92,164 0,142 Z" fill="url(#bn-page)" opacity="0.96" stroke="#b8901f" stroke-width="1.5"/>
    <path d="M0,-148 C-44,-160 -92,-160 -130,-152 L-130,140 C-92,148 -44,148 0,142 Z" fill="#070509" opacity="0.10"/>
    <path d="M0,-148 C44,-160 92,-160 130,-152 L130,140 C92,148 44,148 0,142 Z" fill="#070509" opacity="0.10"/>
    <g stroke="#070509" stroke-width="3" opacity="0.32" stroke-linecap="round">
      <line x1="-220" y1="-104" x2="-44" y2="-118"/><line x1="-220" y1="-74" x2="-40" y2="-88"/><line x1="-220" y1="-44" x2="-48" y2="-58"/><line x1="-220" y1="-14" x2="-40" y2="-28"/><line x1="-220" y1="16" x2="-50" y2="2"/><line x1="-220" y1="46" x2="-42" y2="32"/><line x1="-220" y1="76" x2="-58" y2="62"/><line x1="-220" y1="106" x2="-46" y2="94"/>
    </g>
    <g stroke="#070509" stroke-width="3" opacity="0.32" stroke-linecap="round">
      <line x1="44" y1="-118" x2="220" y2="-104"/><line x1="40" y1="-88" x2="220" y2="-74"/><line x1="48" y1="-58" x2="220" y2="-44"/><line x1="40" y1="-28" x2="220" y2="-14"/><line x1="50" y1="2" x2="220" y2="16"/><line x1="42" y1="32" x2="220" y2="46"/><line x1="58" y1="62" x2="220" y2="76"/><line x1="46" y1="94" x2="220" y2="106"/>
    </g>
    <polygon transform="translate(132 -132)" points="0,-16 4,-4 16,0 4,4 0,16 -4,4 -16,0 -4,-4" fill="#070509" opacity="0.4"/>
    <path d="M-262,-140 C-196,-168 -92,-176 0,-148 C92,-176 196,-168 262,-140" fill="none" stroke="#f3dd97" stroke-width="1.4" opacity="0.65"/>
  </g>

  <!-- union + mark -->
  <g transform="translate(800 372)" opacity="0.55" filter="url(#bn-soft)">
    <line x1="-22" y1="0" x2="22" y2="0" stroke="#f3dd97" stroke-width="3"/>
    <line x1="0" y1="-22" x2="0" y2="22" stroke="#f3dd97" stroke-width="3"/>
  </g>

  <!-- scrim + title -->
  <rect y="470" width="1600" height="430" fill="url(#bn-scrim)"/>
  <g text-anchor="middle" font-family="'Cinzel','Cormorant Garamond',Georgia,'Times New Roman',serif">
    <text x="800" y="648" font-size="32" letter-spacing="13" fill="#e6c24a" opacity="0.85" font-family="'Cinzel',Georgia,serif">&#10022; &#160; BEST VALUE BUNDLE</text>
    <text x="800" y="758" font-size="118" font-weight="600" fill="url(#bn-gold)" letter-spacing="2">Reading &amp; Poster</text>
    <text x="800" y="816" font-size="40" font-style="italic" fill="#f0e9da" opacity="0.86">Your story and your sky, together</text>
    <text x="800" y="866" font-size="21" letter-spacing="8" fill="#a6aeb8" opacity="0.8" font-family="'Cinzel',Georgia,serif">INSTANT PDF + 250GSM PRINT</text>
  </g>

  <rect x="22" y="22" width="1556" height="856" fill="none" stroke="rgba(201,162,39,0.28)" stroke-width="1.5"/>
  <rect x="34" y="34" width="1532" height="832" fill="none" stroke="rgba(201,162,39,0.12)" stroke-width="1"/>
</svg>
