<?xml version="1.0" encoding="UTF-8"?>
<svg xmlns="http://www.w3.org/2000/svg" viewBox="0 0 128 128" role="img" aria-label="Sun">
  <defs>
    <radialGradient id="bg" cx="38%" cy="30%" r="72%">
      <stop offset="0%" stop-color="#2a2218"/>
      <stop offset="55%" stop-color="#120e0a"/>
      <stop offset="100%" stop-color="#050406"/>
    </radialGradient>
    <radialGradient id="glow" cx="50%" cy="50%" r="50%">
      <stop offset="70%" stop-color="transparent"/>
      <stop offset="100%" stop-color="#c9a227" stop-opacity="0.18"/>
    </radialGradient>
  </defs>
  <circle cx="64" cy="64" r="62" fill="url(#bg)" stroke="#c9a227" stroke-width="1.2" opacity="0.85"/>
  <circle cx="64" cy="64" r="62" fill="url(#glow)"/>
  <g fill="none" stroke-linecap="round" stroke-linejoin="round" stroke="#c9a227" vector-effect="non-scaling-stroke">
    <circle cx="64" cy="64" r="18" stroke-width="2.2" fill="#1a1208" fill-opacity="0.35"/>
    <circle cx="64" cy="64" r="10" stroke="#efe3c0" stroke-width="1.4" opacity="0.7"/>
    <g stroke-width="1.6" opacity="0.95">
      <line x1="64" y1="30" x2="64" y2="40"/><line x1="64" y1="88" x2="64" y2="98"/>
      <line x1="30" y1="64" x2="40" y2="64"/><line x1="88" y1="64" x2="98" y2="64"/>
      <line x1="40" y1="40" x2="47" y2="47"/><line x1="88" y1="88" x2="81" y2="81"/>
      <line x1="88" y1="40" x2="81" y2="47"/><line x1="40" y1="88" x2="47" y2="81"/>
    </g>
    <path d="M58 62c2-6 10-6 12 0s-6 10-12 0" stroke-width="1.3" stroke="#efe3c0" opacity="0.65"/>
  </g>
</svg>