<?xml version="1.0" encoding="UTF-8"?>
<svg xmlns="http://www.w3.org/2000/svg" viewBox="0 0 96 112" role="img" aria-label="Capricorn zodiac seal">
  <defs>
    <radialGradient id="plate" cx="38%" cy="26%" r="78%">
      <stop offset="0%" stop-color="#2a2218"/>
      <stop offset="55%" stop-color="#120e0a"/>
      <stop offset="100%" stop-color="#050406"/>
    </radialGradient>
    <radialGradient id="sheen" cx="32%" cy="22%" r="55%">
      <stop offset="0%" stop-color="#fff" stop-opacity="0.12"/>
      <stop offset="100%" stop-color="#fff" stop-opacity="0"/>
    </radialGradient>
    
  </defs>
  <path d="M48 6 L86 28 L86 84 L48 106 L10 84 L10 28 Z" fill="url(#plate)"/>
  <path d="M48 6 L86 28 L86 84 L48 106 L10 84 L10 28 Z" fill="url(#sheen)"/>
  <path d="M48 6 L86 28 L86 84 L48 106 L10 84 L10 28 Z" fill="none" stroke="#c9a227" stroke-width="1.4" opacity="0.9"/>
  <path d="M48 14 L78 32 L78 80 L48 98 L18 80 L18 32 Z" fill="none" stroke="#c9a227" stroke-width="0.8" opacity="0.38"/>
  <g stroke="#c9a227" stroke-width="0.9" opacity="0.55" stroke-linecap="round">
    <line x1="48" y1="6" x2="48" y2="14"/><line x1="86" y1="28" x2="78" y2="32"/>
    <line x1="86" y1="84" x2="78" y2="80"/><line x1="48" y1="106" x2="48" y2="98"/>
    <line x1="10" y1="84" x2="18" y2="80"/><line x1="10" y1="28" x2="18" y2="32"/>
  </g>
  <g fill="none" stroke-linecap="round" stroke-linejoin="round" vector-effect="non-scaling-stroke">
    <g stroke="#c9a227" stroke-width="2">
    <path d="M34 44c0 20 8 32 14 36 6-12 10-24 8-38 6 4 12 0 14-8-8 2-14 8-16 16" fill="#1a1208" fill-opacity="0.32"/>
    <path d="M48 80c-8 4-14 2-18-4" stroke-width="1.4"/>
    <path d="M58 42c4-6 10-8 16-4" stroke-width="1.3" stroke="#efe3c0" opacity="0.6"/>
  </g>
  <g stroke="#5e8a4a" stroke-width="1.1" opacity="0.72" fill="none">
    <path d="M20 56c4-8 10-12 16-10"/><path d="M76 56c-4-8-10-12-16-10"/>
  </g>
  </g>
</svg>