<?xml version="1.0" encoding="UTF-8"?>
<svg xmlns="http://www.w3.org/2000/svg" viewBox="0 0 96 112" role="img" aria-label="Sagittarius zodiac seal">
  <defs>
    <radialGradient id="plate" cx="38%" cy="26%" r="78%">
      <stop offset="0%" stop-color="#2a2218"/>
      <stop offset="55%" stop-color="#120e0a"/>
      <stop offset="100%" stop-color="#050406"/>
    </radialGradient>
    <radialGradient id="sheen" cx="32%" cy="22%" r="55%">
      <stop offset="0%" stop-color="#fff" stop-opacity="0.12"/>
      <stop offset="100%" stop-color="#fff" stop-opacity="0"/>
    </radialGradient>
    
  </defs>
  <path d="M48 6 L86 28 L86 84 L48 106 L10 84 L10 28 Z" fill="url(#plate)"/>
  <path d="M48 6 L86 28 L86 84 L48 106 L10 84 L10 28 Z" fill="url(#sheen)"/>
  <path d="M48 6 L86 28 L86 84 L48 106 L10 84 L10 28 Z" fill="none" stroke="#c9a227" stroke-width="1.4" opacity="0.9"/>
  <path d="M48 14 L78 32 L78 80 L48 98 L18 80 L18 32 Z" fill="none" stroke="#c9a227" stroke-width="0.8" opacity="0.38"/>
  <g stroke="#c9a227" stroke-width="0.9" opacity="0.55" stroke-linecap="round">
    <line x1="48" y1="6" x2="48" y2="14"/><line x1="86" y1="28" x2="78" y2="32"/>
    <line x1="86" y1="84" x2="78" y2="80"/><line x1="48" y1="106" x2="48" y2="98"/>
    <line x1="10" y1="84" x2="18" y2="80"/><line x1="10" y1="28" x2="18" y2="32"/>
  </g>
  <g fill="none" stroke-linecap="round" stroke-linejoin="round" vector-effect="non-scaling-stroke">
    <g stroke="#c9a227" stroke-width="2">
    <line x1="34" y1="78" x2="62" y2="38" stroke-width="2.2"/>
    <path d="M54 38h12v12" stroke-width="1.8"/>
    <path d="M30 72c6 4 12 6 18 4" stroke-width="1.3" opacity="0.55"/>
    <circle cx="62" cy="38" r="2" fill="#efe3c0" stroke="none" opacity="0.75"/>
    <path d="M36 76l-4 6 8-2z" fill="#1a1208" fill-opacity="0.4" stroke="#c9a227" stroke-width="1.2"/>
  </g>
  <g stroke="#e05a3a" stroke-width="1.1" opacity="0.72" fill="none">
    <path d="M20 56c4-8 10-12 16-10"/><path d="M76 56c-4-8-10-12-16-10"/>
  </g>
  </g>
</svg>